<svg xmlns="http://www.w3.org/2000/svg" id="Layer_1" style="enable-background:new 0 0 48 48;" viewBox="0 0 48 48" x="0px" y="0px" version="1.1" xmlns:xml="http://www.w3.org/XML/1998/namespace" xml:space="preserve" xmlns:xlink="http://www.w3.org/1999/xlink">
<g>
	<path style="fill:#797979;" d="M 16 36 H 0 l 0.333 -1 l 11.946 -8 c 0.43 0 0.813 0.275 0.949 0.684 L 16 36 Z" />
	<path style="fill:#797979;" d="M 32 36 H 16 l 0.333 -1 l 11.946 -8 c 0.43 0 0.813 0.275 0.949 0.684 L 32 36 Z" />
	<path style="fill:#797979;" d="M 48 36 H 32 l 0.333 -1 l 11.946 -8 c 0.43 0 0.813 0.275 0.949 0.684 L 48 36 Z" />
	<path style="fill:#797979;" d="M 40 27 H 24 l 0.333 -1 l 11.946 -8 c 0.43 0 0.813 0.275 0.949 0.684 L 40 27 Z" />
	<path style="fill:#797979;" d="M 32 18 H 16 l 0.333 -1 l 11.946 -8 c 0.43 0 0.813 0.275 0.949 0.684 L 32 18 Z" />
	<path style="fill:#797979;" d="M 24 27 H 8 l 0.333 -1 l 11.946 -8 c 0.43 0 0.813 0.275 0.949 0.684 L 24 27 Z" />
</g>
<g>
	<path style="fill:#BDBDBD;" d="M 13.17 27.54 L 0 36 l 2.77 -8.32 C 2.91 27.28 3.29 27 3.72 27 h 8.56 C 12.66 27 12.99 27.21 13.17 27.54 Z" />
	<path style="fill:#BDBDBD;" d="M 29.17 27.54 L 16 36 l 2.77 -8.32 c 0.14 -0.4 0.52 -0.68 0.95 -0.68 h 8.56 C 28.66 27 28.99 27.21 29.17 27.54 Z" />
	<path style="fill:#BDBDBD;" d="M 45.17 27.54 L 32 36 l 2.77 -8.32 c 0.14 -0.4 0.52 -0.68 0.95 -0.68 h 8.56 C 44.66 27 44.99 27.21 45.17 27.54 Z" />
	<path style="fill:#BDBDBD;" d="M 37.17 18.54 L 24 27 l 2.77 -8.32 c 0.14 -0.4 0.52 -0.68 0.95 -0.68 h 8.56 C 36.66 18 36.99 18.21 37.17 18.54 Z" />
	<path style="fill:#BDBDBD;" d="M 29.17 9.54 L 16 18 l 2.77 -8.32 C 18.91 9.28 19.29 9 19.72 9 h 8.56 C 28.66 9 28.99 9.21 29.17 9.54 Z" />
	<path style="fill:#BDBDBD;" d="M 21.17 18.54 L 8 27 l 2.77 -8.32 c 0.14 -0.4 0.52 -0.68 0.95 -0.68 h 8.56 C 20.66 18 20.99 18.21 21.17 18.54 Z" />
</g>
</svg>