<svg xmlns="http://www.w3.org/2000/svg" id="Layer_1_1_" style="enable-background:new 0 0 48 48;" viewBox="0 0 48 48" x="0px" y="0px" version="1.1" xmlns:xml="http://www.w3.org/XML/1998/namespace" xml:space="preserve" xmlns:xlink="http://www.w3.org/1999/xlink">
<g>
</g>
<path style="fill:#1976D2;" d="M 35.633 39 H 12.367 c 3.216 2.498 7.245 4 11.633 4 S 32.417 41.498 35.633 39 Z" />
<path style="fill:#1565C0;" d="M 10.17 37 c 0.68 0.723 1.413 1.391 2.198 2 h 23.266 c 0.785 -0.609 1.518 -1.277 2.198 -2 H 10.17 Z" />
<path style="fill:#64B5F6;" d="M 24 38 c 0 -0.552 -0.448 -1 -1 -1 H 10.17 c 0.68 0.723 1.413 1.391 2.198 2 H 23 C 23.552 39 24 38.552 24 38 Z" />
<path style="fill:#1976D2;" d="M 7.266 33 c 0.788 1.463 1.774 2.799 2.904 4 H 37.83 c 1.129 -1.201 2.115 -2.537 2.904 -4 H 7.266 Z" />
<path style="fill:#1E88E5;" d="M 5 24 c 0 3.257 0.822 6.321 2.266 9 h 33.468 C 42.178 30.321 43 27.257 43 24 c 0 -2.099 -0.354 -4.112 -0.982 -6 H 5.982 C 5.354 19.888 5 21.901 5 24 Z" />
<path style="fill:#64B5F6;" d="M 27 33 h -2 c -0.55 0 -1 -0.45 -1 -1 v 0 c 0 -0.55 0.45 -1 1 -1 h 2 c 0.55 0 1 0.45 1 1 v 0 C 28 32.55 27.55 33 27 33 Z" />
<path style="fill:#64B5F6;" d="M 23 25 v 2 l 19.763 0.001 c 0.104 -0.656 0.174 -1.323 0.209 -2 L 23 25 Z" />
<path style="fill:#1976D2;" d="M 7.266 15 c -0.513 0.952 -0.937 1.959 -1.284 3 h 36.035 c -0.347 -1.041 -0.77 -2.048 -1.284 -3 H 7.266 Z" />
<path style="fill:#1565C0;" d="M 40.734 15 c -0.788 -1.463 -1.774 -2.799 -2.904 -4 H 10.17 c -1.129 1.201 -2.115 2.537 -2.904 4 H 40.734 Z" />
<path style="fill:#64B5F6;" d="M 10.17 11 H 37.83 c -0.68 -0.723 -1.413 -1.391 -2.198 -2 H 12.367 C 11.583 9.609 10.849 10.277 10.17 11 Z" />
<path style="fill:#1976D2;" d="M 12.367 9 h 23.266 C 32.417 6.502 28.388 5 24 5 S 15.583 6.502 12.367 9 Z" />
<ellipse style="fill:#1565C0;" cx="23" cy="26" rx="7" ry="3" />
<ellipse style="fill:#0D47A1;" cx="23" cy="26" rx="4" ry="1" />
</svg>